G04 #@! TF.GenerationSoftware,KiCad,Pcbnew,(5.1.5)-3*
G04 #@! TF.CreationDate,2020-10-04T20:12:50-04:00*
G04 #@! TF.ProjectId,rusPDM,72757350-444d-42e6-9b69-6361645f7063,rev?*
G04 #@! TF.SameCoordinates,Original*
G04 #@! TF.FileFunction,Legend,Top*
G04 #@! TF.FilePolarity,Positive*
%FSLAX46Y46*%
G04 Gerber Fmt 4.6, Leading zero omitted, Abs format (unit mm)*
G04 Created by KiCad (PCBNEW (5.1.5)-3) date 2020-10-04 20:12:50*
%MOMM*%
%LPD*%
G04 APERTURE LIST*
%ADD10C,0.100000*%
%ADD11C,0.120000*%
%ADD12C,0.150000*%
%ADD13C,0.254000*%
%ADD14C,0.015000*%
G04 APERTURE END LIST*
D10*
X203050000Y-113180000D02*
X203050000Y-100180000D01*
X216050000Y-113180000D02*
X203050000Y-113180000D01*
X216050000Y-100180000D02*
X216050000Y-113180000D01*
X203050000Y-100180000D02*
X216050000Y-100180000D01*
X86210000Y-113180000D02*
X86210000Y-100180000D01*
X99210000Y-113180000D02*
X86210000Y-113180000D01*
X99210000Y-100180000D02*
X99210000Y-113180000D01*
X86210000Y-100180000D02*
X99210000Y-100180000D01*
D11*
X90678000Y-14859500D02*
X91178000Y-14359500D01*
X91178000Y-14359500D02*
X90178000Y-14359500D01*
X90178000Y-14359500D02*
X90678000Y-14859500D01*
X82378000Y-15059500D02*
X96478000Y-15059500D01*
X96478000Y-15059500D02*
X96478000Y-19859500D01*
X96478000Y-23359500D02*
X96478000Y-28159500D01*
X96478000Y-28159500D02*
X82378000Y-28159500D01*
X82378000Y-28159500D02*
X82378000Y-23359500D01*
X82378000Y-19859500D02*
X82378000Y-15059500D01*
D10*
X199830500Y-50726500D02*
G75*
G03X199830500Y-50726500I-250000J0D01*
G01*
D12*
X203220500Y-49976500D02*
X209420500Y-49976500D01*
X203220500Y-49976500D02*
X203220500Y-56576500D01*
X203220500Y-56576500D02*
X209420500Y-56576500D01*
X209420500Y-56516500D02*
X209420500Y-56576500D01*
X209420500Y-49976500D02*
X209420500Y-50036500D01*
D10*
X137052500Y-85025000D02*
G75*
G03X137052500Y-85025000I-250000J0D01*
G01*
D12*
X137552500Y-88665000D02*
X137552500Y-94865000D01*
X137552500Y-88665000D02*
X130952500Y-88665000D01*
X130952500Y-88665000D02*
X130952500Y-94865000D01*
X131012500Y-94865000D02*
X130952500Y-94865000D01*
X137552500Y-94865000D02*
X137492500Y-94865000D01*
D10*
X103716500Y-56017000D02*
G75*
G03X103716500Y-56017000I-250000J0D01*
G01*
D12*
X99826500Y-56767000D02*
X93626500Y-56767000D01*
X99826500Y-56767000D02*
X99826500Y-50167000D01*
X99826500Y-50167000D02*
X93626500Y-50167000D01*
X93626500Y-50227000D02*
X93626500Y-50167000D01*
X93626500Y-56767000D02*
X93626500Y-56707000D01*
D10*
X114319500Y-85025000D02*
G75*
G03X114319500Y-85025000I-250000J0D01*
G01*
D12*
X114819500Y-88665000D02*
X114819500Y-94865000D01*
X114819500Y-88665000D02*
X108219500Y-88665000D01*
X108219500Y-88665000D02*
X108219500Y-94865000D01*
X108279500Y-94865000D02*
X108219500Y-94865000D01*
X114819500Y-94865000D02*
X114759500Y-94865000D01*
D10*
X121812500Y-85025000D02*
G75*
G03X121812500Y-85025000I-250000J0D01*
G01*
D12*
X122312500Y-88665000D02*
X122312500Y-94865000D01*
X122312500Y-88665000D02*
X115712500Y-88665000D01*
X115712500Y-88665000D02*
X115712500Y-94865000D01*
X115772500Y-94865000D02*
X115712500Y-94865000D01*
X122312500Y-94865000D02*
X122252500Y-94865000D01*
D10*
X144686500Y-85050000D02*
G75*
G03X144686500Y-85050000I-250000J0D01*
G01*
D12*
X145186500Y-88690000D02*
X145186500Y-94890000D01*
X145186500Y-88690000D02*
X138586500Y-88690000D01*
X138586500Y-88690000D02*
X138586500Y-94890000D01*
X138646500Y-94890000D02*
X138586500Y-94890000D01*
X145186500Y-94890000D02*
X145126500Y-94890000D01*
D10*
X182772500Y-85025000D02*
G75*
G03X182772500Y-85025000I-250000J0D01*
G01*
D12*
X183272500Y-88665000D02*
X183272500Y-94865000D01*
X183272500Y-88665000D02*
X176672500Y-88665000D01*
X176672500Y-88665000D02*
X176672500Y-94865000D01*
X176732500Y-94865000D02*
X176672500Y-94865000D01*
X183272500Y-94865000D02*
X183212500Y-94865000D01*
D10*
X129432500Y-85025000D02*
G75*
G03X129432500Y-85025000I-250000J0D01*
G01*
D12*
X129932500Y-88665000D02*
X129932500Y-94865000D01*
X129932500Y-88665000D02*
X123332500Y-88665000D01*
X123332500Y-88665000D02*
X123332500Y-94865000D01*
X123392500Y-94865000D02*
X123332500Y-94865000D01*
X129932500Y-94865000D02*
X129872500Y-94865000D01*
D10*
X159886500Y-85050000D02*
G75*
G03X159886500Y-85050000I-250000J0D01*
G01*
D12*
X160386500Y-88690000D02*
X160386500Y-94890000D01*
X160386500Y-88690000D02*
X153786500Y-88690000D01*
X153786500Y-88690000D02*
X153786500Y-94890000D01*
X153846500Y-94890000D02*
X153786500Y-94890000D01*
X160386500Y-94890000D02*
X160326500Y-94890000D01*
D10*
X103653000Y-79004000D02*
G75*
G03X103653000Y-79004000I-250000J0D01*
G01*
D12*
X99763000Y-79754000D02*
X93563000Y-79754000D01*
X99763000Y-79754000D02*
X99763000Y-73154000D01*
X99763000Y-73154000D02*
X93563000Y-73154000D01*
X93563000Y-73214000D02*
X93563000Y-73154000D01*
X93563000Y-79754000D02*
X93563000Y-79694000D01*
D10*
X190392500Y-85025000D02*
G75*
G03X190392500Y-85025000I-250000J0D01*
G01*
D12*
X190892500Y-88665000D02*
X190892500Y-94865000D01*
X190892500Y-88665000D02*
X184292500Y-88665000D01*
X184292500Y-88665000D02*
X184292500Y-94865000D01*
X184352500Y-94865000D02*
X184292500Y-94865000D01*
X190892500Y-94865000D02*
X190832500Y-94865000D01*
D10*
X152292500Y-85025000D02*
G75*
G03X152292500Y-85025000I-250000J0D01*
G01*
D12*
X152792500Y-88665000D02*
X152792500Y-94865000D01*
X152792500Y-88665000D02*
X146192500Y-88665000D01*
X146192500Y-88665000D02*
X146192500Y-94865000D01*
X146252500Y-94865000D02*
X146192500Y-94865000D01*
X152792500Y-94865000D02*
X152732500Y-94865000D01*
D10*
X198076000Y-85025000D02*
G75*
G03X198076000Y-85025000I-250000J0D01*
G01*
D12*
X198576000Y-88665000D02*
X198576000Y-94865000D01*
X198576000Y-88665000D02*
X191976000Y-88665000D01*
X191976000Y-88665000D02*
X191976000Y-94865000D01*
X192036000Y-94865000D02*
X191976000Y-94865000D01*
X198576000Y-94865000D02*
X198516000Y-94865000D01*
D10*
X103653000Y-63700500D02*
G75*
G03X103653000Y-63700500I-250000J0D01*
G01*
D12*
X99763000Y-64450500D02*
X93563000Y-64450500D01*
X99763000Y-64450500D02*
X99763000Y-57850500D01*
X99763000Y-57850500D02*
X93563000Y-57850500D01*
X93563000Y-57910500D02*
X93563000Y-57850500D01*
X93563000Y-64450500D02*
X93563000Y-64390500D01*
D10*
X175152500Y-85025000D02*
G75*
G03X175152500Y-85025000I-250000J0D01*
G01*
D12*
X175652500Y-88665000D02*
X175652500Y-94865000D01*
X175652500Y-88665000D02*
X169052500Y-88665000D01*
X169052500Y-88665000D02*
X169052500Y-94865000D01*
X169112500Y-94865000D02*
X169052500Y-94865000D01*
X175652500Y-94865000D02*
X175592500Y-94865000D01*
D10*
X167532500Y-85025000D02*
G75*
G03X167532500Y-85025000I-250000J0D01*
G01*
D12*
X168032500Y-88665000D02*
X168032500Y-94865000D01*
X168032500Y-88665000D02*
X161432500Y-88665000D01*
X161432500Y-88665000D02*
X161432500Y-94865000D01*
X161492500Y-94865000D02*
X161432500Y-94865000D01*
X168032500Y-94865000D02*
X167972500Y-94865000D01*
D10*
X103653000Y-71384000D02*
G75*
G03X103653000Y-71384000I-250000J0D01*
G01*
D12*
X99763000Y-72134000D02*
X93563000Y-72134000D01*
X99763000Y-72134000D02*
X99763000Y-65534000D01*
X99763000Y-65534000D02*
X93563000Y-65534000D01*
X93563000Y-65594000D02*
X93563000Y-65534000D01*
X93563000Y-72134000D02*
X93563000Y-72074000D01*
D10*
X106699500Y-85025000D02*
G75*
G03X106699500Y-85025000I-250000J0D01*
G01*
D12*
X107199500Y-88665000D02*
X107199500Y-94865000D01*
X107199500Y-88665000D02*
X100599500Y-88665000D01*
X100599500Y-88665000D02*
X100599500Y-94865000D01*
X100659500Y-94865000D02*
X100599500Y-94865000D01*
X107199500Y-94865000D02*
X107139500Y-94865000D01*
D10*
X205632500Y-85025000D02*
G75*
G03X205632500Y-85025000I-250000J0D01*
G01*
D12*
X206132500Y-88665000D02*
X206132500Y-94865000D01*
X206132500Y-88665000D02*
X199532500Y-88665000D01*
X199532500Y-88665000D02*
X199532500Y-94865000D01*
X199592500Y-94865000D02*
X199532500Y-94865000D01*
X206132500Y-94865000D02*
X206072500Y-94865000D01*
D10*
X199830500Y-58283000D02*
G75*
G03X199830500Y-58283000I-250000J0D01*
G01*
D12*
X203220500Y-57533000D02*
X209420500Y-57533000D01*
X203220500Y-57533000D02*
X203220500Y-64133000D01*
X203220500Y-64133000D02*
X209420500Y-64133000D01*
X209420500Y-64073000D02*
X209420500Y-64133000D01*
X209420500Y-57533000D02*
X209420500Y-57593000D01*
D10*
X199830500Y-65903000D02*
G75*
G03X199830500Y-65903000I-250000J0D01*
G01*
D12*
X203220500Y-65153000D02*
X209420500Y-65153000D01*
X203220500Y-65153000D02*
X203220500Y-71753000D01*
X203220500Y-71753000D02*
X209420500Y-71753000D01*
X209420500Y-71693000D02*
X209420500Y-71753000D01*
X209420500Y-65153000D02*
X209420500Y-65213000D01*
D10*
X199830500Y-73586500D02*
G75*
G03X199830500Y-73586500I-250000J0D01*
G01*
D12*
X203220500Y-72836500D02*
X209420500Y-72836500D01*
X203220500Y-72836500D02*
X203220500Y-79436500D01*
X203220500Y-79436500D02*
X209420500Y-79436500D01*
X209420500Y-79376500D02*
X209420500Y-79436500D01*
X209420500Y-72836500D02*
X209420500Y-72896500D01*
D13*
X209126666Y-105984523D02*
X209126666Y-106891666D01*
X209066190Y-107073095D01*
X208945238Y-107194047D01*
X208763809Y-107254523D01*
X208642857Y-107254523D01*
X210336190Y-105984523D02*
X209731428Y-105984523D01*
X209670952Y-106589285D01*
X209731428Y-106528809D01*
X209852380Y-106468333D01*
X210154761Y-106468333D01*
X210275714Y-106528809D01*
X210336190Y-106589285D01*
X210396666Y-106710238D01*
X210396666Y-107012619D01*
X210336190Y-107133571D01*
X210275714Y-107194047D01*
X210154761Y-107254523D01*
X209852380Y-107254523D01*
X209731428Y-107194047D01*
X209670952Y-107133571D01*
X92286666Y-105984523D02*
X92286666Y-106891666D01*
X92226190Y-107073095D01*
X92105238Y-107194047D01*
X91923809Y-107254523D01*
X91802857Y-107254523D01*
X93435714Y-106407857D02*
X93435714Y-107254523D01*
X93133333Y-105924047D02*
X92830952Y-106831190D01*
X93617142Y-106831190D01*
D12*
X84544666Y-13761880D02*
X84544666Y-14476166D01*
X84497047Y-14619023D01*
X84401809Y-14714261D01*
X84258952Y-14761880D01*
X84163714Y-14761880D01*
X84925619Y-13761880D02*
X85544666Y-13761880D01*
X85211333Y-14142833D01*
X85354190Y-14142833D01*
X85449428Y-14190452D01*
X85497047Y-14238071D01*
X85544666Y-14333309D01*
X85544666Y-14571404D01*
X85497047Y-14666642D01*
X85449428Y-14714261D01*
X85354190Y-14761880D01*
X85068476Y-14761880D01*
X84973238Y-14714261D01*
X84925619Y-14666642D01*
D14*
X205214303Y-49751425D02*
X205851724Y-49751425D01*
X205926715Y-49713930D01*
X205964210Y-49676434D01*
X206001705Y-49601444D01*
X206001705Y-49451462D01*
X205964210Y-49376472D01*
X205926715Y-49338976D01*
X205851724Y-49301481D01*
X205214303Y-49301481D01*
X205214303Y-48551574D02*
X205214303Y-48926528D01*
X205589257Y-48964023D01*
X205551761Y-48926528D01*
X205514266Y-48851537D01*
X205514266Y-48664060D01*
X205551761Y-48589070D01*
X205589257Y-48551574D01*
X205664247Y-48514079D01*
X205851724Y-48514079D01*
X205926715Y-48551574D01*
X205964210Y-48589070D01*
X206001705Y-48664060D01*
X206001705Y-48851537D01*
X205964210Y-48926528D01*
X205926715Y-48964023D01*
X137402621Y-90658803D02*
X137402621Y-91296224D01*
X137440116Y-91371215D01*
X137477612Y-91408710D01*
X137552602Y-91446205D01*
X137702584Y-91446205D01*
X137777574Y-91408710D01*
X137815070Y-91371215D01*
X137852565Y-91296224D01*
X137852565Y-90658803D01*
X138639967Y-91446205D02*
X138190023Y-91446205D01*
X138414995Y-91446205D02*
X138414995Y-90658803D01*
X138340004Y-90771289D01*
X138265014Y-90846280D01*
X138190023Y-90883775D01*
X138939930Y-90733794D02*
X138977425Y-90696299D01*
X139052416Y-90658803D01*
X139239892Y-90658803D01*
X139314883Y-90696299D01*
X139352378Y-90733794D01*
X139389874Y-90808785D01*
X139389874Y-90883775D01*
X139352378Y-90996261D01*
X138902434Y-91446205D01*
X139389874Y-91446205D01*
X96970303Y-58191925D02*
X97607724Y-58191925D01*
X97682715Y-58154430D01*
X97720210Y-58116934D01*
X97757705Y-58041944D01*
X97757705Y-57891962D01*
X97720210Y-57816972D01*
X97682715Y-57779476D01*
X97607724Y-57741981D01*
X96970303Y-57741981D01*
X96970303Y-57442018D02*
X96970303Y-56917084D01*
X97757705Y-57254542D01*
X114669621Y-90658803D02*
X114669621Y-91296224D01*
X114707116Y-91371215D01*
X114744612Y-91408710D01*
X114819602Y-91446205D01*
X114969584Y-91446205D01*
X115044574Y-91408710D01*
X115082070Y-91371215D01*
X115119565Y-91296224D01*
X115119565Y-90658803D01*
X115457023Y-90733794D02*
X115494518Y-90696299D01*
X115569509Y-90658803D01*
X115756986Y-90658803D01*
X115831976Y-90696299D01*
X115869472Y-90733794D01*
X115906967Y-90808785D01*
X115906967Y-90883775D01*
X115869472Y-90996261D01*
X115419528Y-91446205D01*
X115906967Y-91446205D01*
X116581883Y-90658803D02*
X116431902Y-90658803D01*
X116356911Y-90696299D01*
X116319416Y-90733794D01*
X116244425Y-90846280D01*
X116206930Y-90996261D01*
X116206930Y-91296224D01*
X116244425Y-91371215D01*
X116281920Y-91408710D01*
X116356911Y-91446205D01*
X116506892Y-91446205D01*
X116581883Y-91408710D01*
X116619378Y-91371215D01*
X116656874Y-91296224D01*
X116656874Y-91108747D01*
X116619378Y-91033757D01*
X116581883Y-90996261D01*
X116506892Y-90958766D01*
X116356911Y-90958766D01*
X116281920Y-90996261D01*
X116244425Y-91033757D01*
X116206930Y-91108747D01*
X122162621Y-90658803D02*
X122162621Y-91296224D01*
X122200116Y-91371215D01*
X122237612Y-91408710D01*
X122312602Y-91446205D01*
X122462584Y-91446205D01*
X122537574Y-91408710D01*
X122575070Y-91371215D01*
X122612565Y-91296224D01*
X122612565Y-90658803D01*
X122950023Y-90733794D02*
X122987518Y-90696299D01*
X123062509Y-90658803D01*
X123249986Y-90658803D01*
X123324976Y-90696299D01*
X123362472Y-90733794D01*
X123399967Y-90808785D01*
X123399967Y-90883775D01*
X123362472Y-90996261D01*
X122912528Y-91446205D01*
X123399967Y-91446205D01*
X123699930Y-90733794D02*
X123737425Y-90696299D01*
X123812416Y-90658803D01*
X123999892Y-90658803D01*
X124074883Y-90696299D01*
X124112378Y-90733794D01*
X124149874Y-90808785D01*
X124149874Y-90883775D01*
X124112378Y-90996261D01*
X123662434Y-91446205D01*
X124149874Y-91446205D01*
X145036621Y-90683803D02*
X145036621Y-91321224D01*
X145074116Y-91396215D01*
X145111612Y-91433710D01*
X145186602Y-91471205D01*
X145336584Y-91471205D01*
X145411574Y-91433710D01*
X145449070Y-91396215D01*
X145486565Y-91321224D01*
X145486565Y-90683803D01*
X145824023Y-90758794D02*
X145861518Y-90721299D01*
X145936509Y-90683803D01*
X146123986Y-90683803D01*
X146198976Y-90721299D01*
X146236472Y-90758794D01*
X146273967Y-90833785D01*
X146273967Y-90908775D01*
X146236472Y-91021261D01*
X145786528Y-91471205D01*
X146273967Y-91471205D01*
X147023874Y-91471205D02*
X146573930Y-91471205D01*
X146798902Y-91471205D02*
X146798902Y-90683803D01*
X146723911Y-90796289D01*
X146648920Y-90871280D01*
X146573930Y-90908775D01*
X183122621Y-90658803D02*
X183122621Y-91296224D01*
X183160116Y-91371215D01*
X183197612Y-91408710D01*
X183272602Y-91446205D01*
X183422584Y-91446205D01*
X183497574Y-91408710D01*
X183535070Y-91371215D01*
X183572565Y-91296224D01*
X183572565Y-90658803D01*
X183910023Y-90733794D02*
X183947518Y-90696299D01*
X184022509Y-90658803D01*
X184209986Y-90658803D01*
X184284976Y-90696299D01*
X184322472Y-90733794D01*
X184359967Y-90808785D01*
X184359967Y-90883775D01*
X184322472Y-90996261D01*
X183872528Y-91446205D01*
X184359967Y-91446205D01*
X184847406Y-90658803D02*
X184922397Y-90658803D01*
X184997388Y-90696299D01*
X185034883Y-90733794D01*
X185072378Y-90808785D01*
X185109874Y-90958766D01*
X185109874Y-91146243D01*
X185072378Y-91296224D01*
X185034883Y-91371215D01*
X184997388Y-91408710D01*
X184922397Y-91446205D01*
X184847406Y-91446205D01*
X184772416Y-91408710D01*
X184734920Y-91371215D01*
X184697425Y-91296224D01*
X184659930Y-91146243D01*
X184659930Y-90958766D01*
X184697425Y-90808785D01*
X184734920Y-90733794D01*
X184772416Y-90696299D01*
X184847406Y-90658803D01*
X129782621Y-90658803D02*
X129782621Y-91296224D01*
X129820116Y-91371215D01*
X129857612Y-91408710D01*
X129932602Y-91446205D01*
X130082584Y-91446205D01*
X130157574Y-91408710D01*
X130195070Y-91371215D01*
X130232565Y-91296224D01*
X130232565Y-90658803D01*
X131019967Y-91446205D02*
X130570023Y-91446205D01*
X130794995Y-91446205D02*
X130794995Y-90658803D01*
X130720004Y-90771289D01*
X130645014Y-90846280D01*
X130570023Y-90883775D01*
X131394920Y-91446205D02*
X131544902Y-91446205D01*
X131619892Y-91408710D01*
X131657388Y-91371215D01*
X131732378Y-91258729D01*
X131769874Y-91108747D01*
X131769874Y-90808785D01*
X131732378Y-90733794D01*
X131694883Y-90696299D01*
X131619892Y-90658803D01*
X131469911Y-90658803D01*
X131394920Y-90696299D01*
X131357425Y-90733794D01*
X131319930Y-90808785D01*
X131319930Y-90996261D01*
X131357425Y-91071252D01*
X131394920Y-91108747D01*
X131469911Y-91146243D01*
X131619892Y-91146243D01*
X131694883Y-91108747D01*
X131732378Y-91071252D01*
X131769874Y-90996261D01*
X160236621Y-90683803D02*
X160236621Y-91321224D01*
X160274116Y-91396215D01*
X160311612Y-91433710D01*
X160386602Y-91471205D01*
X160536584Y-91471205D01*
X160611574Y-91433710D01*
X160649070Y-91396215D01*
X160686565Y-91321224D01*
X160686565Y-90683803D01*
X161473967Y-91471205D02*
X161024023Y-91471205D01*
X161248995Y-91471205D02*
X161248995Y-90683803D01*
X161174004Y-90796289D01*
X161099014Y-90871280D01*
X161024023Y-90908775D01*
X161923911Y-91021261D02*
X161848920Y-90983766D01*
X161811425Y-90946271D01*
X161773930Y-90871280D01*
X161773930Y-90833785D01*
X161811425Y-90758794D01*
X161848920Y-90721299D01*
X161923911Y-90683803D01*
X162073892Y-90683803D01*
X162148883Y-90721299D01*
X162186378Y-90758794D01*
X162223874Y-90833785D01*
X162223874Y-90871280D01*
X162186378Y-90946271D01*
X162148883Y-90983766D01*
X162073892Y-91021261D01*
X161923911Y-91021261D01*
X161848920Y-91058757D01*
X161811425Y-91096252D01*
X161773930Y-91171243D01*
X161773930Y-91321224D01*
X161811425Y-91396215D01*
X161848920Y-91433710D01*
X161923911Y-91471205D01*
X162073892Y-91471205D01*
X162148883Y-91433710D01*
X162186378Y-91396215D01*
X162223874Y-91321224D01*
X162223874Y-91171243D01*
X162186378Y-91096252D01*
X162148883Y-91058757D01*
X162073892Y-91021261D01*
X96906803Y-81553878D02*
X97544224Y-81553878D01*
X97619215Y-81516383D01*
X97656710Y-81478888D01*
X97694205Y-81403897D01*
X97694205Y-81253916D01*
X97656710Y-81178925D01*
X97619215Y-81141430D01*
X97544224Y-81103934D01*
X96906803Y-81103934D01*
X97694205Y-80316532D02*
X97694205Y-80766476D01*
X97694205Y-80541504D02*
X96906803Y-80541504D01*
X97019289Y-80616495D01*
X97094280Y-80691486D01*
X97131775Y-80766476D01*
X96906803Y-80054065D02*
X96906803Y-79529130D01*
X97694205Y-79866588D01*
X190742621Y-90658803D02*
X190742621Y-91296224D01*
X190780116Y-91371215D01*
X190817612Y-91408710D01*
X190892602Y-91446205D01*
X191042584Y-91446205D01*
X191117574Y-91408710D01*
X191155070Y-91371215D01*
X191192565Y-91296224D01*
X191192565Y-90658803D01*
X191979967Y-91446205D02*
X191530023Y-91446205D01*
X191754995Y-91446205D02*
X191754995Y-90658803D01*
X191680004Y-90771289D01*
X191605014Y-90846280D01*
X191530023Y-90883775D01*
X192654883Y-90658803D02*
X192504902Y-90658803D01*
X192429911Y-90696299D01*
X192392416Y-90733794D01*
X192317425Y-90846280D01*
X192279930Y-90996261D01*
X192279930Y-91296224D01*
X192317425Y-91371215D01*
X192354920Y-91408710D01*
X192429911Y-91446205D01*
X192579892Y-91446205D01*
X192654883Y-91408710D01*
X192692378Y-91371215D01*
X192729874Y-91296224D01*
X192729874Y-91108747D01*
X192692378Y-91033757D01*
X192654883Y-90996261D01*
X192579892Y-90958766D01*
X192429911Y-90958766D01*
X192354920Y-90996261D01*
X192317425Y-91033757D01*
X192279930Y-91108747D01*
X152642621Y-90658803D02*
X152642621Y-91296224D01*
X152680116Y-91371215D01*
X152717612Y-91408710D01*
X152792602Y-91446205D01*
X152942584Y-91446205D01*
X153017574Y-91408710D01*
X153055070Y-91371215D01*
X153092565Y-91296224D01*
X153092565Y-90658803D01*
X153879967Y-91446205D02*
X153430023Y-91446205D01*
X153654995Y-91446205D02*
X153654995Y-90658803D01*
X153580004Y-90771289D01*
X153505014Y-90846280D01*
X153430023Y-90883775D01*
X154592378Y-90658803D02*
X154217425Y-90658803D01*
X154179930Y-91033757D01*
X154217425Y-90996261D01*
X154292416Y-90958766D01*
X154479892Y-90958766D01*
X154554883Y-90996261D01*
X154592378Y-91033757D01*
X154629874Y-91108747D01*
X154629874Y-91296224D01*
X154592378Y-91371215D01*
X154554883Y-91408710D01*
X154479892Y-91446205D01*
X154292416Y-91446205D01*
X154217425Y-91408710D01*
X154179930Y-91371215D01*
X198426121Y-90658803D02*
X198426121Y-91296224D01*
X198463616Y-91371215D01*
X198501112Y-91408710D01*
X198576102Y-91446205D01*
X198726084Y-91446205D01*
X198801074Y-91408710D01*
X198838570Y-91371215D01*
X198876065Y-91296224D01*
X198876065Y-90658803D01*
X199663467Y-91446205D02*
X199213523Y-91446205D01*
X199438495Y-91446205D02*
X199438495Y-90658803D01*
X199363504Y-90771289D01*
X199288514Y-90846280D01*
X199213523Y-90883775D01*
X200338383Y-90921271D02*
X200338383Y-91446205D01*
X200150906Y-90621308D02*
X199963430Y-91183738D01*
X200450869Y-91183738D01*
X96906803Y-66250378D02*
X97544224Y-66250378D01*
X97619215Y-66212883D01*
X97656710Y-66175388D01*
X97694205Y-66100397D01*
X97694205Y-65950416D01*
X97656710Y-65875425D01*
X97619215Y-65837930D01*
X97544224Y-65800434D01*
X96906803Y-65800434D01*
X97694205Y-65013032D02*
X97694205Y-65462976D01*
X97694205Y-65238004D02*
X96906803Y-65238004D01*
X97019289Y-65312995D01*
X97094280Y-65387986D01*
X97131775Y-65462976D01*
X96906803Y-64750565D02*
X96906803Y-64263126D01*
X97206766Y-64525593D01*
X97206766Y-64413107D01*
X97244261Y-64338116D01*
X97281757Y-64300621D01*
X97356747Y-64263126D01*
X97544224Y-64263126D01*
X97619215Y-64300621D01*
X97656710Y-64338116D01*
X97694205Y-64413107D01*
X97694205Y-64638079D01*
X97656710Y-64713070D01*
X97619215Y-64750565D01*
X175502621Y-90658803D02*
X175502621Y-91296224D01*
X175540116Y-91371215D01*
X175577612Y-91408710D01*
X175652602Y-91446205D01*
X175802584Y-91446205D01*
X175877574Y-91408710D01*
X175915070Y-91371215D01*
X175952565Y-91296224D01*
X175952565Y-90658803D01*
X176739967Y-91446205D02*
X176290023Y-91446205D01*
X176514995Y-91446205D02*
X176514995Y-90658803D01*
X176440004Y-90771289D01*
X176365014Y-90846280D01*
X176290023Y-90883775D01*
X177489874Y-91446205D02*
X177039930Y-91446205D01*
X177264902Y-91446205D02*
X177264902Y-90658803D01*
X177189911Y-90771289D01*
X177114920Y-90846280D01*
X177039930Y-90883775D01*
X167882621Y-90658803D02*
X167882621Y-91296224D01*
X167920116Y-91371215D01*
X167957612Y-91408710D01*
X168032602Y-91446205D01*
X168182584Y-91446205D01*
X168257574Y-91408710D01*
X168295070Y-91371215D01*
X168332565Y-91296224D01*
X168332565Y-90658803D01*
X169119967Y-91446205D02*
X168670023Y-91446205D01*
X168894995Y-91446205D02*
X168894995Y-90658803D01*
X168820004Y-90771289D01*
X168745014Y-90846280D01*
X168670023Y-90883775D01*
X169607406Y-90658803D02*
X169682397Y-90658803D01*
X169757388Y-90696299D01*
X169794883Y-90733794D01*
X169832378Y-90808785D01*
X169869874Y-90958766D01*
X169869874Y-91146243D01*
X169832378Y-91296224D01*
X169794883Y-91371215D01*
X169757388Y-91408710D01*
X169682397Y-91446205D01*
X169607406Y-91446205D01*
X169532416Y-91408710D01*
X169494920Y-91371215D01*
X169457425Y-91296224D01*
X169419930Y-91146243D01*
X169419930Y-90958766D01*
X169457425Y-90808785D01*
X169494920Y-90733794D01*
X169532416Y-90696299D01*
X169607406Y-90658803D01*
X96906803Y-73558925D02*
X97544224Y-73558925D01*
X97619215Y-73521430D01*
X97656710Y-73483934D01*
X97694205Y-73408944D01*
X97694205Y-73258962D01*
X97656710Y-73183972D01*
X97619215Y-73146476D01*
X97544224Y-73108981D01*
X96906803Y-73108981D01*
X97694205Y-72696532D02*
X97694205Y-72546551D01*
X97656710Y-72471560D01*
X97619215Y-72434065D01*
X97506729Y-72359074D01*
X97356747Y-72321579D01*
X97056785Y-72321579D01*
X96981794Y-72359074D01*
X96944299Y-72396570D01*
X96906803Y-72471560D01*
X96906803Y-72621542D01*
X96944299Y-72696532D01*
X96981794Y-72734028D01*
X97056785Y-72771523D01*
X97244261Y-72771523D01*
X97319252Y-72734028D01*
X97356747Y-72696532D01*
X97394243Y-72621542D01*
X97394243Y-72471560D01*
X97356747Y-72396570D01*
X97319252Y-72359074D01*
X97244261Y-72321579D01*
X107424574Y-90658803D02*
X107424574Y-91296224D01*
X107462070Y-91371215D01*
X107499565Y-91408710D01*
X107574556Y-91446205D01*
X107724537Y-91446205D01*
X107799528Y-91408710D01*
X107837023Y-91371215D01*
X107874518Y-91296224D01*
X107874518Y-90658803D01*
X108361958Y-90996261D02*
X108286967Y-90958766D01*
X108249472Y-90921271D01*
X108211976Y-90846280D01*
X108211976Y-90808785D01*
X108249472Y-90733794D01*
X108286967Y-90696299D01*
X108361958Y-90658803D01*
X108511939Y-90658803D01*
X108586930Y-90696299D01*
X108624425Y-90733794D01*
X108661920Y-90808785D01*
X108661920Y-90846280D01*
X108624425Y-90921271D01*
X108586930Y-90958766D01*
X108511939Y-90996261D01*
X108361958Y-90996261D01*
X108286967Y-91033757D01*
X108249472Y-91071252D01*
X108211976Y-91146243D01*
X108211976Y-91296224D01*
X108249472Y-91371215D01*
X108286967Y-91408710D01*
X108361958Y-91446205D01*
X108511939Y-91446205D01*
X108586930Y-91408710D01*
X108624425Y-91371215D01*
X108661920Y-91296224D01*
X108661920Y-91146243D01*
X108624425Y-91071252D01*
X108586930Y-91033757D01*
X108511939Y-90996261D01*
X206357574Y-90658803D02*
X206357574Y-91296224D01*
X206395070Y-91371215D01*
X206432565Y-91408710D01*
X206507556Y-91446205D01*
X206657537Y-91446205D01*
X206732528Y-91408710D01*
X206770023Y-91371215D01*
X206807518Y-91296224D01*
X206807518Y-90658803D01*
X207519930Y-90658803D02*
X207369948Y-90658803D01*
X207294958Y-90696299D01*
X207257462Y-90733794D01*
X207182472Y-90846280D01*
X207144976Y-90996261D01*
X207144976Y-91296224D01*
X207182472Y-91371215D01*
X207219967Y-91408710D01*
X207294958Y-91446205D01*
X207444939Y-91446205D01*
X207519930Y-91408710D01*
X207557425Y-91371215D01*
X207594920Y-91296224D01*
X207594920Y-91108747D01*
X207557425Y-91033757D01*
X207519930Y-90996261D01*
X207444939Y-90958766D01*
X207294958Y-90958766D01*
X207219967Y-90996261D01*
X207182472Y-91033757D01*
X207144976Y-91108747D01*
X205214303Y-57307925D02*
X205851724Y-57307925D01*
X205926715Y-57270430D01*
X205964210Y-57232934D01*
X206001705Y-57157944D01*
X206001705Y-57007962D01*
X205964210Y-56932972D01*
X205926715Y-56895476D01*
X205851724Y-56857981D01*
X205214303Y-56857981D01*
X205214303Y-56558018D02*
X205214303Y-56070579D01*
X205514266Y-56333046D01*
X205514266Y-56220560D01*
X205551761Y-56145570D01*
X205589257Y-56108074D01*
X205664247Y-56070579D01*
X205851724Y-56070579D01*
X205926715Y-56108074D01*
X205964210Y-56145570D01*
X206001705Y-56220560D01*
X206001705Y-56445532D01*
X205964210Y-56520523D01*
X205926715Y-56558018D01*
X205214303Y-64927925D02*
X205851724Y-64927925D01*
X205926715Y-64890430D01*
X205964210Y-64852934D01*
X206001705Y-64777944D01*
X206001705Y-64627962D01*
X205964210Y-64552972D01*
X205926715Y-64515476D01*
X205851724Y-64477981D01*
X205214303Y-64477981D01*
X205289294Y-64140523D02*
X205251799Y-64103028D01*
X205214303Y-64028037D01*
X205214303Y-63840560D01*
X205251799Y-63765570D01*
X205289294Y-63728074D01*
X205364285Y-63690579D01*
X205439275Y-63690579D01*
X205551761Y-63728074D01*
X206001705Y-64178018D01*
X206001705Y-63690579D01*
X205214303Y-72611425D02*
X205851724Y-72611425D01*
X205926715Y-72573930D01*
X205964210Y-72536434D01*
X206001705Y-72461444D01*
X206001705Y-72311462D01*
X205964210Y-72236472D01*
X205926715Y-72198976D01*
X205851724Y-72161481D01*
X205214303Y-72161481D01*
X206001705Y-71374079D02*
X206001705Y-71824023D01*
X206001705Y-71599051D02*
X205214303Y-71599051D01*
X205326789Y-71674042D01*
X205401780Y-71749032D01*
X205439275Y-71824023D01*
M02*
