M48
; DRILL file {KiCad (5.1.5)-3} date 10/4/2020 8:12:47 PM
; FORMAT={-:-/ absolute / inch / decimal}
; #@! TF.CreationDate,2020-10-04T20:12:47-04:00
; #@! TF.GenerationSoftware,Kicad,Pcbnew,(5.1.5)-3
; #@! TF.FileFunction,Plated,1,2,PTH
FMAT,2
INCH
T1C0.0118
T2C0.0157
T3C0.0362
T4C0.0551
T5C0.0591
T6C0.0630
T7C0.0906
%
G90
G05
T1
X3.5197Y-1.3386
X3.5375Y-1.745
X3.5574Y-1.7199
X3.6969Y-1.3071
X3.9221Y-1.9953
X3.9221Y-2.3023
X3.9221Y-2.6016
X3.9221Y-2.9047
X3.9488Y-0.9606
X3.9567Y-1.4094
X3.9575Y-2.405
X3.9575Y-2.7075
X3.9575Y-3.0075
X3.96Y-2.1025
X3.96Y-2.34
X3.96Y-2.6425
X3.96Y-2.9425
X3.9625Y-2.0375
X3.9724Y-1.0197
X3.9803Y-2.4331
X3.9803Y-2.4606
X3.9803Y-2.4882
X3.9803Y-2.5157
X3.9838Y-3.5004
X3.9843Y-2.1339
X3.9843Y-2.1614
X3.9843Y-2.189
X3.9843Y-2.2165
X4.0118Y-2.4331
X4.0118Y-2.4606
X4.0118Y-2.4882
X4.0118Y-2.5157
X4.0157Y-2.1339
X4.0157Y-2.1614
X4.0157Y-2.189
X4.0157Y-2.2165
X4.0225Y-3.46
X4.035Y-1.2475
X4.035Y-1.3685
X4.035Y-1.4985
X4.0425Y-3.34
X4.0433Y-2.4331
X4.0433Y-2.4606
X4.0433Y-2.4882
X4.0433Y-2.5157
X4.0472Y-2.1339
X4.0472Y-2.1614
X4.0472Y-2.189
X4.0472Y-2.2165
X4.0525Y-0.7825
X4.0525Y-1.1275
X4.0669Y-1.1693
X4.08Y-1.2475
X4.08Y-1.3688
X4.08Y-1.4987
X4.08Y-2.36
X4.08Y-2.6625
X4.08Y-2.9625
X4.0825Y-2.0575
X4.085Y-1.1275
X4.0875Y-3.4625
X4.1025Y-0.7825
X4.122Y-1.0354
X4.125Y-1.2475
X4.125Y-1.3691
X4.125Y-1.499
X4.125Y-2.025
X4.1389Y-1.7845
X4.155Y-0.7825
X4.1571Y-1.7996
X4.1663Y-2.0175
X4.17Y-1.2475
X4.17Y-1.3694
X4.17Y-1.4993
X4.175Y-1.815
X4.195Y-1.83
X4.205Y-0.7825
X4.2077Y-2.0275
X4.215Y-1.2475
X4.215Y-1.3696
X4.215Y-1.4996
X4.215Y-1.8475
X4.2266Y-1.0276
X4.235Y-1.865
X4.2425Y-1.1275
X4.249Y-2.0166
X4.255Y-1.8839
X4.2598Y-1.1693
X4.26Y-1.2475
X4.26Y-1.3699
X4.26Y-1.4998
X4.275Y-1.1275
X4.2756Y-0.8031
X4.2903Y-2.0275
X4.2909Y-3.5004
X4.305Y-1.2475
X4.305Y-1.3702
X4.305Y-1.5001
X4.3189Y-0.9685
X4.3225Y-3.4625
X4.3268Y-0.7402
X4.3313Y-2.0138
X4.3425Y-3.3425
X4.35Y-1.2475
X4.35Y-1.3685
X4.35Y-1.4984
X4.3875Y-3.465
X4.395Y-1.2475
X4.395Y-1.3688
X4.395Y-1.4987
X4.43Y-0.7825
X4.4375Y-1.1275
X4.44Y-1.2475
X4.44Y-1.3691
X4.44Y-1.499
X4.4528Y-1.1693
X4.47Y-1.1275
X4.48Y-0.7825
X4.485Y-1.2475
X4.485Y-1.3693
X4.485Y-1.4993
X4.492Y-1.0196
X4.53Y-1.2475
X4.53Y-1.3696
X4.53Y-1.4995
X4.5325Y-0.7825
X4.575Y-1.2475
X4.575Y-1.3699
X4.575Y-1.4998
X4.5825Y-0.7825
X4.5862Y-3.5004
X4.6082Y-1.0274
X4.6175Y-3.4625
X4.62Y-1.2475
X4.62Y-1.3702
X4.62Y-1.5001
X4.625Y-1.1275
X4.6375Y-3.3425
X4.6417Y-1.1693
X4.6575Y-1.1275
X4.665Y-1.2475
X4.665Y-1.3704
X4.665Y-1.5004
X4.6825Y-3.465
X4.71Y-1.2475
X4.71Y-1.3687
X4.71Y-1.4987
X4.7126Y-0.7362
X4.748Y-0.6969
X4.7575Y-1.2475
X4.7575Y-1.3685
X4.7575Y-1.4984
X4.7598Y-0.9685
X4.8025Y-1.2475
X4.8025Y-1.3688
X4.8025Y-1.4987
X4.81Y-0.7825
X4.81Y-1.1275
X4.8268Y-1.1693
X4.8425Y-1.1275
X4.8475Y-1.2475
X4.8475Y-1.369
X4.8475Y-1.499
X4.86Y-0.7825
X4.8775Y-3.5004
X4.8898Y-1.0354
X4.8925Y-1.2475
X4.8925Y-1.3693
X4.8925Y-1.4992
X4.9125Y-0.7825
X4.9175Y-3.4625
X4.9375Y-1.2475
X4.9375Y-1.3696
X4.9375Y-1.4995
X4.9375Y-3.3425
X4.9625Y-0.7825
X4.98Y-1.1275
X4.9825Y-1.2475
X4.9825Y-1.3699
X4.9825Y-1.4998
X4.9825Y-3.465
X4.9858Y-1.0315
X5.0039Y-1.1693
X5.0225Y-1.1275
X5.0275Y-1.2475
X5.0275Y-1.3701
X5.0275Y-1.5001
X5.0725Y-1.2475
X5.0725Y-1.3704
X5.0725Y-1.5003
X5.0906Y-0.7362
X5.1063Y-0.9764
X5.1535Y-0.7402
X5.1846Y-3.5004
X5.2175Y-3.4625
X5.2303Y-1.1673
X5.2375Y-3.3425
X5.2825Y-3.465
X5.374Y-0.7638
X5.401Y-0.7935
X5.4433Y-1.0767
X5.455Y-1.05
X5.464Y-1.4236
X5.4838Y-3.5004
X5.4847Y-1.4351
X5.5079Y-1.4394
X5.5175Y-3.4625
X5.5239Y-1.4568
X5.5276Y-0.6102
X5.5375Y-3.3425
X5.5466Y-1.4634
X5.5535Y-0.6385
X5.5618Y-1.484
X5.5748Y-1.2126
X5.5825Y-3.465
X5.585Y-1.49
X5.7047Y-0.5
X5.7165Y-1.3543
X5.7791Y-3.5004
X5.8159Y-1.7775
X5.8175Y-3.4625
X5.8375Y-3.3425
X5.8825Y-0.4567
X5.8825Y-3.465
X6.0748Y-1.7717
X6.0822Y-3.5004
X6.0985Y-1.7415
X6.1175Y-3.4625
X6.1375Y-3.3425
X6.1675Y-1.6075
X6.1732Y-1.874
X6.1825Y-3.465
X6.189Y-0.9764
X6.1952Y-0.4978
X6.1985Y-1.8409
X6.2307Y-1.4669
X6.2313Y-1.497
X6.2407Y-1.5343
X6.2475Y-1.705
X6.2525Y-1.5075
X6.2559Y-0.5079
X6.2732Y-1.4825
X6.3375Y-1.3875
X6.3854Y-3.5004
X6.394Y-1.5115
X6.4175Y-3.4625
X6.4331Y-0.4094
X6.4375Y-3.3425
X6.4416Y-0.7155
X6.4825Y-3.465
X6.4965Y-1.564
X6.5276Y-1.5945
X6.5413Y-1.3799
X6.5709Y-1.4094
X6.6415Y-1.2815
X6.6693Y-1.311
X6.6732Y-0.937
X6.6772Y-1.2441
X6.6846Y-3.5004
X6.689Y-0.9961
X6.7087Y-1.2756
X6.7175Y-3.4625
X6.7375Y-3.3425
X6.7559Y-1.3307
X6.7559Y-1.3937
X6.7825Y-3.465
X6.815Y-1.3976
X6.8819Y-1.3268
X6.945Y-1.3241
X6.9838Y-3.5004
X7.0175Y-3.4625
X7.0375Y-3.3425
X7.0825Y-3.465
X7.113Y-1.6138
X7.1366Y-1.6138
X7.1602Y-1.6138
X7.1838Y-1.6138
X7.2075Y-1.6138
X7.2311Y-1.6138
X7.2547Y-1.6138
X7.2783Y-1.6138
X7.283Y-3.5004
X7.3Y-2.1895
X7.302Y-1.6138
X7.3094Y-2.1482
X7.3132Y-2.1018
X7.3148Y-2.0534
X7.3175Y-3.4625
X7.3195Y-2.0083
X7.3228Y-1.3268
X7.3251Y-1.6092
X7.3286Y-1.967
X7.3346Y-1.9232
X7.3375Y-3.3425
X7.3397Y-1.8779
X7.3472Y-1.8366
X7.3492Y-1.6084
X7.3573Y-1.7952
X7.3648Y-1.7539
X7.3699Y-1.7076
X7.3764Y-1.6084
X7.3825Y-3.465
X7.395Y-1.6729
X7.4064Y-1.6084
X7.43Y-1.6075
X7.4303Y-1.6497
X7.5862Y-3.5004
X7.62Y-3.4625
X7.64Y-3.3425
X7.6575Y-0.9034
X7.685Y-3.465
X7.85Y-2.145
X7.85Y-2.4425
X7.85Y-2.7425
X7.85Y-3.045
X7.8815Y-3.5004
X7.8819Y-2.2835
X7.8819Y-2.311
X7.8819Y-2.3386
X7.8819Y-2.3661
X7.8858Y-1.9882
X7.8858Y-2.0157
X7.8858Y-2.0433
X7.8858Y-2.0709
X7.8858Y-2.5827
X7.8858Y-2.6102
X7.8858Y-2.6378
X7.8858Y-2.6654
X7.8858Y-2.8858
X7.8858Y-2.9134
X7.8858Y-2.9409
X7.8858Y-2.9685
X7.9134Y-2.2835
X7.9134Y-2.311
X7.9134Y-2.3386
X7.9134Y-2.3661
X7.9173Y-1.9882
X7.9173Y-2.0157
X7.9173Y-2.0433
X7.9173Y-2.0709
X7.9173Y-2.5827
X7.9173Y-2.6102
X7.9173Y-2.6378
X7.9173Y-2.6654
X7.9173Y-2.8858
X7.9173Y-2.9134
X7.9173Y-2.9409
X7.9173Y-2.9685
X7.9175Y-3.4625
X7.9291Y-1.7874
X7.9375Y-3.3425
X7.9449Y-2.2835
X7.9449Y-2.311
X7.9449Y-2.3386
X7.9449Y-2.3661
X7.9469Y-1.8051
X7.9488Y-1.9882
X7.9488Y-2.0157
X7.9488Y-2.0433
X7.9488Y-2.0709
X7.9488Y-2.5827
X7.9488Y-2.6102
X7.9488Y-2.6378
X7.9488Y-2.6654
X7.9488Y-2.8858
X7.9488Y-2.9134
X7.9488Y-2.9409
X7.9488Y-2.9685
X7.9665Y-1.8248
X7.97Y-2.165
X7.97Y-2.4625
X7.97Y-2.7625
X7.97Y-3.065
X7.9725Y-2.1
X7.9725Y-2.3975
X7.9725Y-2.6975
X7.9725Y-3.0
X7.9825Y-3.465
X7.9882Y-1.8465
X8.0079Y-2.2008
X8.0079Y-2.2008
X8.0079Y-2.5
X8.0079Y-2.7992
X8.0079Y-3.0984
X8.1181Y-1.685
X8.1181Y-1.7205
X8.1181Y-1.7598
X8.1811Y-1.685
X8.1811Y-1.7205
X8.1811Y-1.7598
X8.374Y-1.689
X8.374Y-1.7283
X8.374Y-1.7638
X8.4291Y-1.689
X8.4291Y-1.7283
X8.4291Y-1.7638
X8.4803Y-1.689
X8.4803Y-1.7283
X8.4803Y-1.7638
T2
X7.7244Y-1.4094
X7.7677Y-1.4094
X7.8175Y-1.41
X7.8661Y-1.4094
X7.9094Y-1.4094
T3
X3.4716Y-0.7425
X3.4716Y-0.8685
X3.57Y-0.7425
X3.57Y-0.8685
T4
X5.1228Y-2.2976
X5.1228Y-2.455
X5.1228Y-2.6125
X5.1228Y-2.77
X5.2802Y-2.2976
X5.2802Y-2.455
X5.2802Y-2.6125
X5.2802Y-2.77
X5.4377Y-2.2976
X5.4377Y-2.455
X5.4377Y-2.6125
X5.4377Y-2.77
X5.5952Y-2.2976
X5.5952Y-2.455
X5.5952Y-2.6125
X5.5952Y-2.77
X5.7527Y-2.2976
X5.7527Y-2.455
X5.7527Y-2.6125
X5.7527Y-2.77
X5.9102Y-2.2976
X5.9102Y-2.455
X5.9102Y-2.6125
X5.9102Y-2.77
X6.0676Y-2.2976
X6.0676Y-2.455
X6.0676Y-2.6125
X6.0676Y-2.77
X6.2251Y-2.2976
X6.2251Y-2.455
X6.2251Y-2.6125
X6.2251Y-2.77
X6.3826Y-2.2976
X6.3826Y-2.455
X6.3826Y-2.6125
X6.3826Y-2.77
X6.5401Y-2.2976
X6.5401Y-2.455
X6.5401Y-2.6125
X6.5401Y-2.77
X6.6976Y-2.2976
X6.6976Y-2.455
X6.6976Y-2.6125
X6.6976Y-2.77
X6.855Y-2.2976
X6.855Y-2.455
X6.855Y-2.6125
X6.855Y-2.77
X7.0125Y-2.2976
X7.0125Y-2.455
X7.0125Y-2.6125
X7.0125Y-2.77
X7.17Y-2.2976
X7.17Y-2.455
X7.17Y-2.6125
X7.17Y-2.77
T5
X4.7291Y-2.3172
X4.7291Y-2.5338
X4.7291Y-2.7503
X4.9259Y-2.3172
X4.9259Y-2.5338
X4.9259Y-2.7503
T6
X3.45Y-4.0
X3.45Y-4.1
X3.45Y-4.2
X3.45Y-4.3
X3.45Y-4.4
X3.55Y-4.0
X3.55Y-4.1
X3.55Y-4.2
X3.55Y-4.3
X3.55Y-4.4
X3.65Y-4.0
X3.65Y-4.1
X3.65Y-4.2
X3.65Y-4.3
X3.65Y-4.4
X3.75Y-4.0
X3.75Y-4.1
X3.75Y-4.2
X3.75Y-4.3
X3.75Y-4.4
X3.85Y-4.0
X3.85Y-4.1
X3.85Y-4.2
X3.85Y-4.3
X3.85Y-4.4
X8.05Y-4.0
X8.05Y-4.1
X8.05Y-4.2
X8.05Y-4.3
X8.05Y-4.4
X8.15Y-4.0
X8.15Y-4.1
X8.15Y-4.2
X8.15Y-4.3
X8.15Y-4.4
X8.25Y-4.0
X8.25Y-4.1
X8.25Y-4.2
X8.25Y-4.3
X8.25Y-4.4
X8.35Y-4.0
X8.35Y-4.1
X8.35Y-4.2
X8.35Y-4.3
X8.35Y-4.4
X8.45Y-4.0
X8.45Y-4.1
X8.45Y-4.2
X8.45Y-4.3
X8.45Y-4.4
T7
X3.2838Y-0.8492
X3.7578Y-0.8492
T0
M30
