G04 #@! TF.GenerationSoftware,KiCad,Pcbnew,(5.1.5)-3*
G04 #@! TF.CreationDate,2020-10-04T20:12:49-04:00*
G04 #@! TF.ProjectId,rusPDM,72757350-444d-42e6-9b69-6361645f7063,rev?*
G04 #@! TF.SameCoordinates,Original*
G04 #@! TF.FileFunction,Paste,Top*
G04 #@! TF.FilePolarity,Positive*
%FSLAX46Y46*%
G04 Gerber Fmt 4.6, Leading zero omitted, Abs format (unit mm)*
G04 Created by KiCad (PCBNEW (5.1.5)-3) date 2020-10-04 20:12:49*
%MOMM*%
%LPD*%
G04 APERTURE LIST*
%ADD10R,1.830000X0.560000*%
%ADD11R,5.430000X5.730000*%
%ADD12R,0.560000X1.830000*%
%ADD13R,5.730000X5.430000*%
G04 APERTURE END LIST*
D10*
X201080500Y-55826500D03*
X201080500Y-54976500D03*
X201080500Y-54126500D03*
X201080500Y-53276500D03*
X201080500Y-52426500D03*
X201080500Y-51576500D03*
X201080500Y-50726500D03*
D11*
X207760500Y-53276500D03*
D12*
X131702500Y-86525000D03*
X132552500Y-86525000D03*
X133402500Y-86525000D03*
X134252500Y-86525000D03*
X135102500Y-86525000D03*
X135952500Y-86525000D03*
X136802500Y-86525000D03*
D13*
X134252500Y-93205000D03*
D10*
X101966500Y-50917000D03*
X101966500Y-51767000D03*
X101966500Y-52617000D03*
X101966500Y-53467000D03*
X101966500Y-54317000D03*
X101966500Y-55167000D03*
X101966500Y-56017000D03*
D11*
X95286500Y-53467000D03*
D12*
X108969500Y-86525000D03*
X109819500Y-86525000D03*
X110669500Y-86525000D03*
X111519500Y-86525000D03*
X112369500Y-86525000D03*
X113219500Y-86525000D03*
X114069500Y-86525000D03*
D13*
X111519500Y-93205000D03*
D12*
X116462500Y-86525000D03*
X117312500Y-86525000D03*
X118162500Y-86525000D03*
X119012500Y-86525000D03*
X119862500Y-86525000D03*
X120712500Y-86525000D03*
X121562500Y-86525000D03*
D13*
X119012500Y-93205000D03*
D12*
X139336500Y-86550000D03*
X140186500Y-86550000D03*
X141036500Y-86550000D03*
X141886500Y-86550000D03*
X142736500Y-86550000D03*
X143586500Y-86550000D03*
X144436500Y-86550000D03*
D13*
X141886500Y-93230000D03*
D12*
X177422500Y-86525000D03*
X178272500Y-86525000D03*
X179122500Y-86525000D03*
X179972500Y-86525000D03*
X180822500Y-86525000D03*
X181672500Y-86525000D03*
X182522500Y-86525000D03*
D13*
X179972500Y-93205000D03*
D12*
X124082500Y-86525000D03*
X124932500Y-86525000D03*
X125782500Y-86525000D03*
X126632500Y-86525000D03*
X127482500Y-86525000D03*
X128332500Y-86525000D03*
X129182500Y-86525000D03*
D13*
X126632500Y-93205000D03*
D12*
X154536500Y-86550000D03*
X155386500Y-86550000D03*
X156236500Y-86550000D03*
X157086500Y-86550000D03*
X157936500Y-86550000D03*
X158786500Y-86550000D03*
X159636500Y-86550000D03*
D13*
X157086500Y-93230000D03*
D10*
X101903000Y-73904000D03*
X101903000Y-74754000D03*
X101903000Y-75604000D03*
X101903000Y-76454000D03*
X101903000Y-77304000D03*
X101903000Y-78154000D03*
X101903000Y-79004000D03*
D11*
X95223000Y-76454000D03*
D12*
X185042500Y-86525000D03*
X185892500Y-86525000D03*
X186742500Y-86525000D03*
X187592500Y-86525000D03*
X188442500Y-86525000D03*
X189292500Y-86525000D03*
X190142500Y-86525000D03*
D13*
X187592500Y-93205000D03*
D12*
X146942500Y-86525000D03*
X147792500Y-86525000D03*
X148642500Y-86525000D03*
X149492500Y-86525000D03*
X150342500Y-86525000D03*
X151192500Y-86525000D03*
X152042500Y-86525000D03*
D13*
X149492500Y-93205000D03*
D12*
X192726000Y-86525000D03*
X193576000Y-86525000D03*
X194426000Y-86525000D03*
X195276000Y-86525000D03*
X196126000Y-86525000D03*
X196976000Y-86525000D03*
X197826000Y-86525000D03*
D13*
X195276000Y-93205000D03*
D10*
X101903000Y-58600500D03*
X101903000Y-59450500D03*
X101903000Y-60300500D03*
X101903000Y-61150500D03*
X101903000Y-62000500D03*
X101903000Y-62850500D03*
X101903000Y-63700500D03*
D11*
X95223000Y-61150500D03*
D12*
X169802500Y-86525000D03*
X170652500Y-86525000D03*
X171502500Y-86525000D03*
X172352500Y-86525000D03*
X173202500Y-86525000D03*
X174052500Y-86525000D03*
X174902500Y-86525000D03*
D13*
X172352500Y-93205000D03*
D12*
X162182500Y-86525000D03*
X163032500Y-86525000D03*
X163882500Y-86525000D03*
X164732500Y-86525000D03*
X165582500Y-86525000D03*
X166432500Y-86525000D03*
X167282500Y-86525000D03*
D13*
X164732500Y-93205000D03*
D10*
X101903000Y-66284000D03*
X101903000Y-67134000D03*
X101903000Y-67984000D03*
X101903000Y-68834000D03*
X101903000Y-69684000D03*
X101903000Y-70534000D03*
X101903000Y-71384000D03*
D11*
X95223000Y-68834000D03*
D12*
X101349500Y-86525000D03*
X102199500Y-86525000D03*
X103049500Y-86525000D03*
X103899500Y-86525000D03*
X104749500Y-86525000D03*
X105599500Y-86525000D03*
X106449500Y-86525000D03*
D13*
X103899500Y-93205000D03*
D12*
X200282500Y-86525000D03*
X201132500Y-86525000D03*
X201982500Y-86525000D03*
X202832500Y-86525000D03*
X203682500Y-86525000D03*
X204532500Y-86525000D03*
X205382500Y-86525000D03*
D13*
X202832500Y-93205000D03*
D10*
X201080500Y-63383000D03*
X201080500Y-62533000D03*
X201080500Y-61683000D03*
X201080500Y-60833000D03*
X201080500Y-59983000D03*
X201080500Y-59133000D03*
X201080500Y-58283000D03*
D11*
X207760500Y-60833000D03*
D10*
X201080500Y-71003000D03*
X201080500Y-70153000D03*
X201080500Y-69303000D03*
X201080500Y-68453000D03*
X201080500Y-67603000D03*
X201080500Y-66753000D03*
X201080500Y-65903000D03*
D11*
X207760500Y-68453000D03*
D10*
X201080500Y-78686500D03*
X201080500Y-77836500D03*
X201080500Y-76986500D03*
X201080500Y-76136500D03*
X201080500Y-75286500D03*
X201080500Y-74436500D03*
X201080500Y-73586500D03*
D11*
X207760500Y-76136500D03*
M02*
